<?xml version="1.0" encoding="utf-8"?>
<!-- Generator: Adobe Illustrator 22.1.0, SVG Export Plug-In . SVG Version: 6.00 Build 0)  -->
<svg version="1.1" id="svg2" xmlns:svg="http://www.w3.org/2000/svg"
	 xmlns="http://www.w3.org/2000/svg" xmlns:xlink="http://www.w3.org/1999/xlink" x="0px" y="0px" viewBox="0 0 100.8 41.8"
	 style="enable-background:new 0 0 100.8 41.8;" xml:space="preserve">
<style type="text/css">
	.st0{fill:#E8E8E8;}
	.st1{fill:#F4ABBA;}
	.st2{fill:#EA596E;}
	.st3{fill:#662113;}
	.st4{fill:#292F33;}
</style>
<path class="st0" d="M34.6,27.2c1.1-4.7-4.9-11-9.9-11.3c-4.9-0.4-14.8-7.3-17-11.2C5.6,0.9,3-1.3,1.3,0.9c-1.6,2.2-1,13.4,4.3,16.1
	c0,0-3.7,1.1-5.1,0c-1.4-1.1-0.1,5.7,4.3,6.6c0,0-1.3,0.5-2.7,1C0.6,25,3.2,29,5.7,29.2c0,0-2.7,1.5-0.8,2.7c1.8,1.3,6.6,2,9.3,1.8
	c0,0-2.9,1.1-2.4,1.8c0.5,0.7,5.1,1.1,8.6,0c0,0-1.1,1.1,0,1.6C21.5,37.8,32.6,36,34.6,27.2z"/>
<path class="st0" d="M66.1,27.2c-1.1-4.7,4.9-11,9.9-11.3c4.9-0.4,14.8-7.3,17-11.2c2.2-3.8,4.8-6,6.4-3.8c1.6,2.2,1,13.4-4.3,16.1
	c0,0,3.7,1.1,5.1,0c1.4-1.1,0.1,5.7-4.3,6.6c0,0,1.3,0.5,2.7,1c1.5,0.5-1.1,4.5-3.6,4.7c0,0,2.7,1.5,0.8,2.7c-1.8,1.3-6.6,2-9.3,1.8
	c0,0,2.9,1.1,2.4,1.8c-0.5,0.7-5.1,1.1-8.6,0c0,0,1.1,1.1,0,1.6C79.3,37.8,68.1,36,66.1,27.2z"/>
<g id="g12" transform="matrix(1.25,0,0,-1.25,0,47.5)">
	<g id="g14">
		<g>
			<g id="g16">
				<g id="g22" transform="translate(35.1934,23.6709)">
					<path id="path24" class="st1" d="M21.1,1.5c0.4,0.4,0.7,0.8,1,1.3c1.7,2.9,0.3,10.3-0.6,10.8c-0.7,0.4-5.5-1.1-8.2-3.1
						c-2.5,1.5-5.3,2.4-8.4,2.4c-3,0-5.9-0.9-8.3-2.4c-2.7,2.1-7.5,3.5-8.2,3.1c-0.9-0.5-2.3-7.9-0.6-10.8c0.3-0.5,0.6-0.9,1-1.2
						c-1.2-2.6-1.8-5.3-1.8-8.2c0-10,8-12.5,18-12.5c10,0,18,2.5,18,12.5C22.9-3.8,22.2-1,21.1,1.5"/>
				</g>
				<g id="g26" transform="translate(8.3979,31.0352)">
					<path id="path28" class="st2" d="M21.1,1.5c-2.2,1.3-4.4,2.1-4.8,1.8c-0.6-0.3-1.1-5-0.4-8.3C17.2-2.4,19-0.2,21.1,1.5"/>
				</g>
				<g id="g30" transform="translate(34.7529,24.6157)">
					<path id="path32" class="st2" d="M21.1,1.5c0.7,3.3,0.2,7.9-0.4,8.3c-0.4,0.2-2.6-0.6-4.8-1.8C18.1,6.2,19.8,4,21.1,1.5"/>
				</g>
				<g id="g34" transform="translate(29,13.875)">
					<path id="path36" class="st2" d="M21.1,1.5c0-4.5-3.1-9.4-10-9.4c-6.9,0-10,4.9-10,9.4s3.1,5.6,10,5.6C18,7.1,21.1,6,21.1,1.5"
						/>
				</g>
				<g id="g38" transform="translate(16,12.4004)">
					<path id="path40" class="st3" d="M21.1,1.5c0-1.9-0.3-2.4-1.5-2.4s-1.5,0.5-1.5,2.4c0,1.9,0.3,2.4,1.5,2.4S21.1,3.4,21.1,1.5"
						/>
				</g>
				<g id="g42" transform="translate(25,12.4004)">
					<path id="path44" class="st3" d="M21.1,1.5c0-1.9-0.3-2.4-1.5-2.4s-1.5,0.5-1.5,2.4c0,1.9,0.3,2.4,1.5,2.4S21.1,3.4,21.1,1.5"
						/>
				</g>
				<g id="g46" transform="translate(10,20)">
					<path id="path48" class="st4" d="M21.1,1.5c0-1.1-0.9-2-2-2s-2,0.9-2,2s0.9,2,2,2S21.1,2.6,21.1,1.5"/>
				</g>
				<g id="g50" transform="translate(32,20)">
					<path id="path52" class="st4" d="M21.1,1.5c0-1.1-0.9-2-2-2s-2,0.9-2,2s0.9,2,2,2S21.1,2.6,21.1,1.5"/>
				</g>
			</g>
		</g>
	</g>
</g>
</svg>
